<svg xmlns="http://www.w3.org/2000/svg" xmlns:xlink="http://www.w3.org/1999/xlink" xmlns:inkscape="http://www.inkscape.org/namespaces/inkscape" version="1.1" width="1000" height="1000" viewBox="0 0 1000 1000">
<defs>
<clipPath id="clip_1">
<path transform="matrix(1,0,0,-1,0,1000)" d="M0 1000H1000V0H0Z"/>
</clipPath>
</defs>
<g inkscape:groupmode="layer" inkscape:label="Layer 1">
<g clip-path="url(#clip_1)">
<path transform="matrix(1,0,0,-1,472.8799,313.0918)" d="M0 0C14.293 0 28.6 .38 42.875-.105 57.919-.615 71.472-5.899 83.396-15.142 100.122-28.104 109.8-45.326 112.09-66.154 114.795-90.767 106.993-111.991 88.471-128.764 75.26-140.726 59.464-146.541 41.696-146.854 32.061-147.026 22.417-146.98 12.778-146.813 2.71-146.639-3.815-138.078-1.439-128.45-.027-122.722 5.73-118.535 12.407-118.501 21.558-118.453 30.709-118.33 39.855-118.519 53.942-118.807 65.207-112.973 74.02-102.479 82.687-92.162 86.102-80.026 83.926-66.634 80.271-44.139 61.387-28.238 39.298-28.472 11.854-28.762-15.594-28.57-43.04-28.533-54.681-28.518-61.988-17.017-56.525-7.276-53.802-2.419-49.459 .112-43.864 .134-29.243 .188-14.622 .152 0 .152Z" fill="#36bfbe" fill-rule="evenodd"/>
<path transform="matrix(1,0,0,-1,414.833,451.3916)" d="M0 0C0 12.497-.313 25.003 .07 37.488 .716 58.454 15.244 75.65 36.384 78.646 38.552 78.951 40.764 79.061 42.956 79.063 61.497 79.084 80.039 79.087 98.58 79.032 104.143 79.016 108.645 76.671 111.313 71.766 113.964 66.887 114.219 61.651 111.098 56.865 108.389 52.707 104.406 50.246 99.24 50.248 80.291 50.256 61.341 50.337 42.392 50.284 34.013 50.261 28.164 44.126 28.145 35.493 28.092 11.236 28.071-42.923 28.077-67.18 28.079-75.307 23.973-80.741 16.586-82.182 9.144-83.631 2.146-78.722 .413-70.789 .173-69.682 .061-68.526 .057-67.391 .034-54.895 .042-12.496 .042 0Z" fill="#93c63f" fill-rule="evenodd"/>
<path transform="matrix(1,0,0,-1,358.2695,687.07229)" d="M0 0H-12.821C-13.362 0-13.632 .27-13.632 .811V2.505C-13.632 2.995-13.362 3.242-12.821 3.242H-.369C4.052 3.242 6.263 4.961 6.263 8.399V10.168C6.263 13.361 4.887 15.448 2.137 16.432L-7.074 19.969C-9.579 20.95-11.36 22.105-12.416 23.432-13.474 24.758-14.001 26.6-14.001 28.957-14.001 34.705-10.832 37.578-4.495 37.578H7.441C7.981 37.578 8.252 37.309 8.252 36.768V35.074C8.252 34.582 7.981 34.337 7.441 34.337H-4.127C-6.142 34.337-7.652 33.895-8.658 33.01-9.666 32.126-10.169 31.095-10.169 29.916V28.221C-10.169 26.846-9.789 25.764-9.026 24.979-8.266 24.192-7.1 23.529-5.526 22.989L3.684 19.305C6.237 18.469 7.945 17.229 8.805 15.584 9.664 13.938 10.095 11.642 10.095 8.694 10.095 5.747 9.271 3.561 7.626 2.137 5.979 .711 3.438 0 0 0" fill="#222b35"/>
<path transform="matrix(1,0,0,-1,395.8486,683.75686)" d="M0 0H5.747C8.006 0 9.737 .626 10.941 1.879 12.145 3.132 12.747 4.911 12.747 7.222V23.727C12.747 26.034 12.145 27.815 10.941 29.069 9.737 30.321 8.006 30.948 5.747 30.948H0C-2.261 30.948-3.979 30.321-5.158 29.069-6.337 27.815-6.927 26.034-6.927 23.727V7.222C-6.927 4.911-6.337 3.132-5.158 1.879-3.979 .626-2.261 0 0 0M6.042-3.315H-.295C-3.489-3.315-6.006-2.384-7.848-.517-9.69 1.351-10.611 3.905-10.611 7.147V23.8C-10.611 27.042-9.69 29.596-7.848 31.464-6.006 33.329-3.489 34.263-.295 34.263H6.042C9.234 34.263 11.764 33.329 13.631 31.464 15.497 29.596 16.432 27.042 16.432 23.8V7.147C16.432 3.905 15.497 1.351 13.631-.517 11.764-2.384 9.234-3.315 6.042-3.315" fill="#222b35"/>
<path transform="matrix(1,0,0,-1,438.3633,649.49417)" d="M0 0H6.706C7.295 0 7.59-.27 7.59-.811V-2.504C7.59-3.046 7.295-3.314 6.706-3.314H0C-.441-3.314-.663-3.536-.663-3.979V-36.694C-.663-37.283-.934-37.578-1.474-37.578H-3.61C-4.151-37.578-4.421-37.283-4.421-36.694V-3.979C-4.421-3.536-4.642-3.314-5.084-3.314H-9.8C-10.341-3.314-10.61-3.046-10.61-2.504V-.811C-10.61-.27-10.341 0-9.8 0H-5.084C-4.642 0-4.421 .222-4.421 .664V3.906C-4.421 10.783-1.302 14.222 4.937 14.222H6.706C7.295 14.222 7.59 13.951 7.59 13.411V11.717C7.59 11.176 7.295 10.906 6.706 10.906H5.306C3.095 10.906 1.548 10.316 .663 9.138-.221 7.959-.663 6.165-.663 3.759V.664C-.663 .222-.441 0 0 0" fill="#222b35"/>
<path transform="matrix(1,0,0,-1,462.6787,652.8086)" d="M0 0H-4.494C-5.036 0-5.305 .244-5.305 .736V2.504C-5.305 3.045-5.036 3.314-4.494 3.314H0C.442 3.314 .663 3.536 .663 3.979V9.947C.663 10.536 .933 10.831 1.474 10.831H3.61C4.15 10.831 4.421 10.536 4.421 9.947V3.979C4.421 3.536 4.643 3.314 5.085 3.314H13.853C14.393 3.314 14.663 3.045 14.663 2.504V.736C14.663 .244 14.393 0 13.853 0H5.085C4.643 0 4.421-.222 4.421-.664V-23.875C4.421-26.135 5.06-27.879 6.337-29.106 7.614-30.334 9.406-30.948 11.716-30.948H14.59C15.13-30.948 15.4-31.219 15.4-31.759V-33.453C15.4-33.994 15.13-34.264 14.59-34.264H11.421C8.18-34.264 5.575-33.355 3.61-31.537 1.646-29.721 .663-27.216 .663-24.021V-.664C.663-.222 .442 0 0 0" fill="#222b35"/>
<path transform="matrix(1,0,0,-1,504.9736,687.07229)" d="M0 0H-2.947C-3.439 0-3.758 .295-3.905 .884L-14.222 36.695C-14.369 37.284-14.173 37.578-13.632 37.578H-11.274C-10.734 37.578-10.415 37.284-10.316 36.695L-1.621 4.642H-1.252L7.295 36.695C7.393 37.284 7.736 37.578 8.326 37.578H10.463C11.053 37.578 11.396 37.284 11.494 36.695L19.895 4.642H20.264L29.031 36.695C29.18 37.284 29.498 37.578 29.99 37.578H32.348C32.938 37.578 33.133 37.284 32.938 36.695L22.695 .884C22.547 .295 22.203 0 21.664 0H18.716C18.175 0 17.832 .295 17.685 .884L9.506 31.979H9.137L1.031 .884C.885 .295 .54 0 0 0" fill="#222b35"/>
<path transform="matrix(1,0,0,-1,575.416,676.53518)" d="M0 0V23.062C0 23.505-.247 23.727-.737 23.727H-12.379C-14.64 23.727-16.358 23.087-17.537 21.811-18.716 20.532-19.306 18.739-19.306 16.432V.073C-19.306-2.236-18.716-4.029-17.537-5.307-16.358-6.584-14.64-7.222-12.379-7.222H-7.59C-5.231-7.222-3.378-6.596-2.026-5.343-.676-4.09 0-2.311 0 0M-7.958-10.537H-12.674C-15.868-10.537-18.384-9.605-20.227-7.738-22.069-5.871-22.989-3.316-22.989-.074V16.578C-22.989 19.82-22.069 22.374-20.227 24.242-18.384 26.107-15.868 27.041-12.674 27.041H2.947C3.438 27.041 3.685 26.747 3.685 26.158V-9.653C3.685-10.242 3.438-10.537 2.947-10.537H.811C.27-10.537 0-10.242 0-9.653V-6.706H-.295C-1.573-9.261-4.126-10.537-7.958-10.537" fill="#222b35"/>
<path transform="matrix(1,0,0,-1,601.1318,687.07229)" d="M0 0H-2.137C-2.629 0-2.873 .295-2.873 .884V36.695C-2.873 37.284-2.629 37.578-2.137 37.578H0C.54 37.578 .811 37.284 .811 36.695V33.6H1.105C1.646 34.631 2.604 35.553 3.979 36.363 5.354 37.174 7.049 37.578 9.063 37.578H11.938C12.477 37.578 12.748 37.309 12.748 36.768V35C12.748 34.459 12.477 34.213 11.938 34.264H8.475C6.066 34.264 4.187 33.526 2.837 32.053 1.485 30.578 .811 28.59 .811 26.084V.884C.811 .295 .54 0 0 0" fill="#222b35"/>
<path transform="matrix(1,0,0,-1,633.0361,667.252)" d="M0 0H18.348C18.791 0 19.012 .222 19.012 .664V7.222C19.012 9.529 18.422 11.311 17.243 12.564 16.064 13.816 14.344 14.443 12.085 14.443H6.264C4.004 14.443 2.285 13.816 1.105 12.564-.072 11.311-.662 9.529-.662 7.222V.664C-.662 .222-.441 0 0 0M21.369-19.82H5.969C2.775-19.82 .259-18.889-1.584-17.021-3.426-15.154-4.347-12.6-4.347-9.357V7.295C-4.347 10.537-3.426 13.091-1.584 14.959 .259 16.824 2.775 17.758 5.969 17.758H12.307C15.498 17.758 18.028 16.824 19.896 14.959 21.762 13.091 22.695 10.537 22.695 7.295V-2.063C22.695-2.652 22.4-2.947 21.812-2.947H0C-.441-2.947-.662-3.168-.662-3.61V-9.283C-.662-11.594-.072-13.373 1.105-14.626 2.285-15.879 4.004-16.505 6.264-16.505H21.369C21.909-16.505 22.18-16.775 22.18-17.315V-19.01C22.18-19.551 21.909-19.82 21.369-19.82" fill="#222b35"/>
<path transform="matrix(1,0,0,-1,186.498,576.1904)" d="M0 0H12.217C19.36 0 23.708 3.624 23.708 9.422 23.708 15.323 19.36 18.946 12.217 18.946H0ZM0-20.706H10.249C13.045-20.706 13.873-20.913 15.012-21.638 16.357-22.673 17.082-24.226 17.082-25.882 17.082-29.299 14.805-31.059 10.249-31.059H-11.906C-14.287-31.059-15.737-30.748-16.565-30.023-17.911-29.092-18.739-27.436-18.739-25.882-18.739-24.122-17.808-22.362-16.255-21.431-15.323-20.81-14.391-20.706-11.906-20.706H-10.354V18.946H-11.906C-14.494 18.946-15.634 19.153-16.565 19.878-17.911 20.914-18.739 22.467-18.739 24.123-18.739 25.883-17.808 27.644-16.255 28.575-15.323 29.196-14.598 29.3-11.906 29.3H12.217C25.365 29.3 34.683 21.225 34.683 9.732 34.683 4.97 32.819 .104 29.506-3.52 24.951-8.593 19.774-10.353 10.146-10.353H0Z" fill="#222b35"/>
<path transform="matrix(1,0,0,-1,262.4922,568.7354)" d="M0 0C8.593 6.315 12.112 7.972 17.289 7.972 20.913 7.972 24.226 6.729 27.436 4.037 29.609 2.277 30.334 1.035 30.334-.829 30.334-3.728 27.953-6.108 25.157-6.108 23.708-6.108 22.673-5.591 21.12-4.245 19.567-2.899 18.531-2.382 17.082-2.382 13.873-2.382 9.628-4.97 0-12.941V-28.161H14.391C17.289-28.161 18.117-28.368 19.152-29.093 20.603-30.128 21.327-31.681 21.327-33.337 21.327-35.098 20.396-36.754 18.842-37.789 18.117-38.203 16.564-38.514 14.391-38.514H-16.358C-18.739-38.514-20.188-38.203-21.121-37.479-22.363-36.547-23.191-34.994-23.191-33.337-23.191-31.577-22.26-29.817-20.707-28.886-19.774-28.265-19.05-28.161-16.358-28.161H-10.354V-3.624H-13.978C-16.565-3.624-17.704-3.417-18.739-2.589-20.085-1.657-20.811-.104-20.811 1.553-20.811 3.313-19.878 4.969-18.325 5.9-17.704 6.419-15.737 6.729-13.978 6.729H0Z" fill="#222b35"/>
<path transform="matrix(1,0,0,-1,315.709,584.7832)" d="M0 0C0-7.765 7.144-13.77 16.357-13.77 25.572-13.77 32.716-7.765 32.716 0 32.716 7.661 25.572 13.77 16.564 13.77 7.144 13.77 0 7.868 0 0M43.068 0C43.068-13.563 31.37-24.122 16.357-24.122 1.346-24.122-10.354-13.563-10.354 0-10.354 13.666 1.346 24.123 16.668 24.123 31.37 24.123 43.068 13.355 43.068 0" fill="#222b35"/>
<path transform="matrix(1,0,0,-1,391.2891,574.0156)" d="M0 0C-3.002-2.175-4.97-6.005-4.97-9.318-4.97-16.669 1.346-21.846 10.457-21.846 19.36-21.846 25.779-16.669 25.779-9.422 25.779-6.005 23.812-2.175 20.81 0 18.118 2.07 14.701 3.002 10.457 3.002 6.005 3.002 2.692 2.07 0 0M-4.97-44.104H1.035C3.728-44.104 4.763-44.312 5.798-45.036 7.144-46.071 7.868-47.624 7.868-49.281 7.868-52.801 5.694-54.457 1.035-54.457H-16.979C-19.567-54.457-20.706-54.25-21.741-53.422-23.087-52.49-23.812-50.938-23.812-49.281-23.812-47.521-22.88-45.761-21.327-44.829-20.396-44.208-19.567-44.104-16.979-44.104H-15.322V1.656H-16.979C-19.671 1.656-20.706 1.863-21.741 2.691-22.983 3.623-23.812 5.177-23.812 6.833-23.812 8.593-22.88 10.353-21.327 11.284-20.396 11.803-19.567 12.01-16.979 12.01H-4.97V7.351C.104 11.699 4.452 13.355 10.871 13.355 25.365 13.355 36.133 3.416 36.133-10.043 36.133-22.777 25.572-32.198 11.078-32.198 4.97-32.198 .414-30.542-4.97-26.4Z" fill="#222b35"/>
<path transform="matrix(1,0,0,-1,481.0527,580.33108)" d="M0 0C-1.656 5.694-7.661 9.317-15.219 9.317-22.776 9.317-28.781 5.591-30.437 0ZM-30.749-9.111C-28.367-15.322-22.88-18.222-13.77-18.222-9.007-18.222-6.315-17.808 3.106-15.322 4.349-15.012 5.591-14.805 6.522-14.805 9.422-14.805 11.492-16.979 11.492-19.981 11.492-22.053 10.354-23.605 7.868-24.641 3.21-26.711-7.247-28.574-14.701-28.574-30.749-28.574-42.033-18.739-42.033-4.556-42.033 9.11-30.437 19.671-15.322 19.671 .104 19.671 11.492 9.214 11.492-5.073V-9.111Z" fill="#222b35"/>
<path transform="matrix(1,0,0,-1,531.6826,568.7354)" d="M0 0C8.592 6.315 12.112 7.972 17.289 7.972 20.912 7.972 24.226 6.729 27.436 4.037 29.609 2.277 30.334 1.035 30.334-.829 30.334-3.728 27.953-6.108 25.157-6.108 23.708-6.108 22.673-5.591 21.119-4.245 19.566-2.899 18.531-2.382 17.082-2.382 13.873-2.382 9.628-4.97 0-12.941V-28.161H14.391C17.289-28.161 18.117-28.368 19.152-29.093 20.602-30.128 21.326-31.681 21.326-33.337 21.326-35.098 20.395-36.754 18.842-37.789 18.117-38.203 16.564-38.514 14.391-38.514H-16.358C-18.74-38.514-20.189-38.203-21.121-37.479-22.363-36.547-23.191-34.994-23.191-33.337-23.191-31.577-22.26-29.817-20.707-28.886-19.775-28.265-19.051-28.161-16.358-28.161H-10.354V-3.624H-13.978C-16.565-3.624-17.705-3.417-18.74-2.589-20.086-1.657-20.811-.104-20.811 1.553-20.811 3.313-19.879 4.969-18.326 5.9-17.705 6.419-15.737 6.729-13.978 6.729H0Z" fill="#222b35"/>
<path transform="matrix(1,0,0,-1,606.3301,596.8965)" d="M0 0H6.833C9.628 0 10.456-.207 11.491-.932 12.941-1.967 13.666-3.52 13.666-5.176 13.666-8.593 11.388-10.353 6.833-10.353H-17.083C-19.464-10.353-20.913-10.042-21.741-9.317-23.087-8.386-23.915-6.729-23.915-5.176-23.915-3.416-22.983-1.656-21.431-.725-20.499-.104-19.774 0-17.083 0H-10.353V39.652H-21.431V30.024C-21.431 27.229-21.638 26.4-22.362 25.365-23.397 24.02-24.951 23.191-26.607 23.191-28.368 23.191-30.128 24.123-31.06 25.676-31.577 26.504-31.784 27.643-31.784 30.024V50.006H21.638V30.024C21.638 27.125 21.534 26.4 20.706 25.365 19.671 24.02 18.118 23.191 16.462 23.191 14.701 23.191 12.941 24.123 12.01 25.676 11.491 26.504 11.284 27.643 11.284 30.024V39.652H0Z" fill="#222b35"/>
<path transform="matrix(1,0,0,-1,682.9453,580.33108)" d="M0 0C-1.657 5.694-7.661 9.317-15.22 9.317-22.776 9.317-28.782 5.591-30.438 0ZM-30.749-9.111C-28.368-15.322-22.88-18.222-13.77-18.222-9.007-18.222-6.315-17.808 3.106-15.322 4.349-15.012 5.591-14.805 6.522-14.805 9.421-14.805 11.491-16.979 11.491-19.981 11.491-22.053 10.353-23.605 7.868-24.641 3.21-26.711-7.247-28.574-14.702-28.574-30.749-28.574-42.034-18.739-42.034-4.556-42.034 9.11-30.438 19.671-15.323 19.671 .104 19.671 11.491 9.214 11.491-5.073V-9.111Z" fill="#222b35"/>
<path transform="matrix(1,0,0,-1,760.7002,575.46487)" d="M0 0C0-2.692-.207-3.728-.932-4.763-1.968-6.005-3.521-6.833-5.178-6.833-6.523-6.833-8.076-6.315-8.904-5.384-9.732-4.763-9.939-4.142-10.457-1.864-10.871 0-11.492 .932-12.838 1.863-15.53 3.52-19.258 4.451-23.812 4.451-29.093 4.451-32.924 3.002-35.822 0-38.514-2.692-39.963-6.419-39.963-10.354-39.963-18.843-33.855-23.088-21.742-23.088-17.497-23.088-13.459-22.57-10.871-21.742-8.904-21.018-8.283-20.707-5.695-18.532-4.764-17.704-3.831-17.29-2.589-17.29 .207-17.29 2.588-19.671 2.588-22.57 2.588-25.262 .207-27.954-4.038-30.128-8.283-32.302-14.806-33.44-22.467-33.44-32.51-33.44-38.928-31.267-44.001-26.297-48.143-22.156-50.316-16.772-50.316-10.457-50.316 4.451-39.445 14.805-23.812 14.805-17.912 14.805-12.941 13.77-8.904 11.698-8.283 13.873-7.145 14.805-4.971 14.805-1.554 14.805 0 12.733 0 7.972Z" fill="#222b35"/>
<path transform="matrix(1,0,0,-1,792.2783,566.9756)" d="M0 0C4.142 4.244 8.801 6.315 14.184 6.315 25.158 6.315 32.51-.518 32.51-10.871V-29.921H33.131C35.926-29.921 36.857-30.128 37.893-30.853 39.135-31.888 39.963-33.44 39.963-35.097 39.963-38.617 37.686-40.273 33.131-40.273H21.535C19.051-40.273 17.704-39.963 16.772-39.342 15.427-38.307 14.599-36.754 14.599-35.097 14.599-33.337 15.53-31.681 17.083-30.646 18.016-30.128 18.947-29.921 21.535-29.921H22.156V-12.217C22.156-8.696 21.742-7.454 19.982-6.005 18.223-4.556 16.255-4.038 13.045-4.038 8.076-4.038 5.902-5.177 0-10.975V-29.921H.621C3.521-29.921 4.349-30.128 5.385-30.853 6.834-31.888 7.559-33.44 7.559-35.097 7.559-36.857 6.627-38.514 5.074-39.549 4.245-40.066 2.796-40.273 .621-40.273H-10.974C-13.459-40.273-14.701-39.963-15.736-39.238-16.979-38.307-17.807-36.754-17.807-35.097-17.807-33.337-16.875-31.681-15.322-30.646-14.391-30.128-13.563-29.921-10.974-29.921H-10.353V13.977H-12.01C-14.701 13.977-15.736 14.184-16.771 15.012-18.014 15.943-18.842 17.496-18.842 19.153-18.842 20.913-17.91 22.673-16.357 23.604-15.426 24.122-14.494 24.33-12.01 24.33H0Z" fill="#222b35"/>
</g>
</g>
</svg>
